<mxfile host="www.draw.io" modified="2019-12-08T03:52:11.436Z" agent="Mozilla/5.0 (Windows NT 6.1; WOW64) AppleWebKit/537.36 (KHTML, like Gecko) Chrome/75.0.3770.100 Safari/537.36" etag="nMJzRZG_f_QCXguRYsvs" version="12.3.8" type="github" pages="1">
  <diagram id="2HlnQz6Z-fe8QAx7_XnR" name="第 1 页">
    <mxGraphModel dx="854" dy="429" grid="1" gridSize="10" guides="1" tooltips="1" connect="1" arrows="1" fold="1" page="1" pageScale="1" pageWidth="827" pageHeight="1169" math="0" shadow="0">
      <root>
        <mxCell id="0"/>
        <mxCell id="1" parent="0"/>
        <mxCell id="Jphupbk02JRPcRwaJmDX-22" value="" style="rounded=0;whiteSpace=wrap;html=1;" vertex="1" parent="1">
          <mxGeometry x="20" y="60" width="575" height="280" as="geometry"/>
        </mxCell>
        <mxCell id="Jphupbk02JRPcRwaJmDX-3" value="" style="edgeStyle=orthogonalEdgeStyle;rounded=0;orthogonalLoop=1;jettySize=auto;html=1;" edge="1" parent="1" source="Jphupbk02JRPcRwaJmDX-1" target="Jphupbk02JRPcRwaJmDX-2">
          <mxGeometry relative="1" as="geometry"/>
        </mxCell>
        <mxCell id="Jphupbk02JRPcRwaJmDX-1" value="用户注册" style="rounded=1;whiteSpace=wrap;html=1;fillColor=#999999;" vertex="1" parent="1">
          <mxGeometry x="40" y="80" width="90" height="40" as="geometry"/>
        </mxCell>
        <mxCell id="Jphupbk02JRPcRwaJmDX-5" value="" style="edgeStyle=orthogonalEdgeStyle;rounded=0;orthogonalLoop=1;jettySize=auto;html=1;" edge="1" parent="1" source="Jphupbk02JRPcRwaJmDX-2" target="Jphupbk02JRPcRwaJmDX-4">
          <mxGeometry relative="1" as="geometry"/>
        </mxCell>
        <mxCell id="Jphupbk02JRPcRwaJmDX-2" value="司机认证" style="rounded=1;whiteSpace=wrap;html=1;fillColor=#999999;" vertex="1" parent="1">
          <mxGeometry x="190" y="80" width="90" height="40" as="geometry"/>
        </mxCell>
        <mxCell id="Jphupbk02JRPcRwaJmDX-7" value="" style="edgeStyle=orthogonalEdgeStyle;rounded=0;orthogonalLoop=1;jettySize=auto;html=1;" edge="1" parent="1" source="Jphupbk02JRPcRwaJmDX-4" target="Jphupbk02JRPcRwaJmDX-6">
          <mxGeometry relative="1" as="geometry"/>
        </mxCell>
        <mxCell id="Jphupbk02JRPcRwaJmDX-4" value="车辆认证" style="rounded=1;whiteSpace=wrap;html=1;fillColor=#999999;" vertex="1" parent="1">
          <mxGeometry x="340" y="80" width="90" height="40" as="geometry"/>
        </mxCell>
        <mxCell id="Jphupbk02JRPcRwaJmDX-9" value="" style="edgeStyle=orthogonalEdgeStyle;rounded=0;orthogonalLoop=1;jettySize=auto;html=1;" edge="1" parent="1" source="Jphupbk02JRPcRwaJmDX-6" target="Jphupbk02JRPcRwaJmDX-8">
          <mxGeometry relative="1" as="geometry"/>
        </mxCell>
        <mxCell id="Jphupbk02JRPcRwaJmDX-6" value="接单" style="rounded=1;whiteSpace=wrap;html=1;fillColor=#999999;" vertex="1" parent="1">
          <mxGeometry x="490" y="80" width="90" height="40" as="geometry"/>
        </mxCell>
        <mxCell id="Jphupbk02JRPcRwaJmDX-11" value="" style="edgeStyle=orthogonalEdgeStyle;rounded=0;orthogonalLoop=1;jettySize=auto;html=1;" edge="1" parent="1" source="Jphupbk02JRPcRwaJmDX-8" target="Jphupbk02JRPcRwaJmDX-10">
          <mxGeometry relative="1" as="geometry"/>
        </mxCell>
        <mxCell id="Jphupbk02JRPcRwaJmDX-8" value="装货" style="rounded=1;whiteSpace=wrap;html=1;fillColor=#999999;" vertex="1" parent="1">
          <mxGeometry x="490" y="180" width="90" height="40" as="geometry"/>
        </mxCell>
        <mxCell id="Jphupbk02JRPcRwaJmDX-13" value="" style="edgeStyle=orthogonalEdgeStyle;rounded=0;orthogonalLoop=1;jettySize=auto;html=1;" edge="1" parent="1" source="Jphupbk02JRPcRwaJmDX-10" target="Jphupbk02JRPcRwaJmDX-12">
          <mxGeometry relative="1" as="geometry"/>
        </mxCell>
        <mxCell id="Jphupbk02JRPcRwaJmDX-10" value="卸货" style="rounded=1;whiteSpace=wrap;html=1;fillColor=#999999;" vertex="1" parent="1">
          <mxGeometry x="340" y="180" width="90" height="40" as="geometry"/>
        </mxCell>
        <mxCell id="Jphupbk02JRPcRwaJmDX-15" value="" style="edgeStyle=orthogonalEdgeStyle;rounded=0;orthogonalLoop=1;jettySize=auto;html=1;" edge="1" parent="1" source="Jphupbk02JRPcRwaJmDX-12" target="Jphupbk02JRPcRwaJmDX-14">
          <mxGeometry relative="1" as="geometry"/>
        </mxCell>
        <mxCell id="Jphupbk02JRPcRwaJmDX-12" value="回单" style="rounded=1;whiteSpace=wrap;html=1;fillColor=#999999;" vertex="1" parent="1">
          <mxGeometry x="190" y="180" width="90" height="40" as="geometry"/>
        </mxCell>
        <mxCell id="Jphupbk02JRPcRwaJmDX-17" value="" style="edgeStyle=orthogonalEdgeStyle;rounded=0;orthogonalLoop=1;jettySize=auto;html=1;" edge="1" parent="1" source="Jphupbk02JRPcRwaJmDX-14" target="Jphupbk02JRPcRwaJmDX-16">
          <mxGeometry relative="1" as="geometry"/>
        </mxCell>
        <mxCell id="Jphupbk02JRPcRwaJmDX-14" value="提现" style="rounded=1;whiteSpace=wrap;html=1;fillColor=#999999;" vertex="1" parent="1">
          <mxGeometry x="40" y="180" width="90" height="40" as="geometry"/>
        </mxCell>
        <mxCell id="Jphupbk02JRPcRwaJmDX-19" value="" style="edgeStyle=orthogonalEdgeStyle;rounded=0;orthogonalLoop=1;jettySize=auto;html=1;" edge="1" parent="1" source="Jphupbk02JRPcRwaJmDX-16">
          <mxGeometry relative="1" as="geometry">
            <mxPoint x="210" y="290" as="targetPoint"/>
          </mxGeometry>
        </mxCell>
        <mxCell id="Jphupbk02JRPcRwaJmDX-16" value="评价" style="rounded=1;whiteSpace=wrap;html=1;fillColor=#999999;" vertex="1" parent="1">
          <mxGeometry x="40" y="270" width="90" height="40" as="geometry"/>
        </mxCell>
        <mxCell id="Jphupbk02JRPcRwaJmDX-20" value="完成" style="ellipse;whiteSpace=wrap;html=1;aspect=fixed;rounded=1;fillColor=#0050ef;strokeColor=#001DBC;fontColor=#ffffff;" vertex="1" parent="1">
          <mxGeometry x="210" y="260" width="60" height="60" as="geometry"/>
        </mxCell>
        <mxCell id="Jphupbk02JRPcRwaJmDX-21" value="司机业务流程图" style="rounded=0;whiteSpace=wrap;html=1;fillColor=#CC0000;fontColor=#FFFFFF;fontSize=14;" vertex="1" parent="1">
          <mxGeometry x="20" y="20" width="575" height="40" as="geometry"/>
        </mxCell>
      </root>
    </mxGraphModel>
  </diagram>
</mxfile>
